<svg width="44" height="44" viewBox="0 0 44 44" fill="none" xmlns="http://www.w3.org/2000/svg">
<path d="M34.0838 43.75H9.91716C4.5872 43.75 0.250488 39.4133 0.250488 34.0833V9.91667C0.250488 4.58671 4.5872 0.25 9.91716 0.25H34.0838C39.4138 0.25 43.7505 4.58671 43.7505 9.91667V34.0833C43.7505 39.4133 39.4138 43.75 34.0838 43.75Z" fill="#AED0F2"/>
<path opacity="0.05" d="M34.0838 12.3333C34.2989 12.3333 34.5031 12.3708 34.7025 12.4227L25.2485 21.878C24.3519 22.7733 23.1762 23.2204 22.0005 23.2204C20.8248 23.2204 19.6491 22.7733 18.7525 21.878L9.29851 12.4227C9.49788 12.3708 9.70209 12.3333 9.91718 12.3333H34.0838ZM36.4111 14.1313C36.463 14.3307 36.5005 14.5349 36.5005 14.75V29.25C36.5005 29.4651 36.463 29.6693 36.4111 29.8687L28.5424 22L36.4111 14.1313ZM7.58993 14.1313L15.4586 22L7.59113 29.8675C7.53797 29.6693 7.50051 29.4651 7.50051 29.25V14.75C7.50051 14.5349 7.53797 14.3307 7.58993 14.1313ZM26.8218 23.6965L34.7025 31.5773C34.5031 31.6292 34.2989 31.6667 34.0838 31.6667H9.91718C9.70209 31.6667 9.49788 31.6292 9.29851 31.5773L17.1793 23.6965C18.529 24.981 20.2605 25.6359 22.0005 25.6359C23.7405 25.6359 25.472 24.981 26.8218 23.6965ZM34.0838 11.125H9.91718C9.62234 11.125 9.31905 11.1673 8.98918 11.2555C8.57109 11.3667 8.24484 11.6917 8.13247 12.1098C8.0213 12.5218 8.13609 12.9605 8.43213 13.265C8.20376 13.0438 7.90047 12.923 7.58993 12.923C7.4848 12.923 7.37968 12.9363 7.27576 12.9641C6.85888 13.0765 6.53263 13.4027 6.42147 13.8208C6.33447 14.1519 6.29218 14.4552 6.29218 14.75V29.25C6.29218 29.5448 6.33447 29.8481 6.42268 30.178C6.53384 30.5961 6.85888 30.9223 7.27697 31.0347C7.38088 31.0625 7.48601 31.0758 7.59113 31.0758C7.90167 31.0758 8.20497 30.9562 8.43213 30.735C8.13609 31.0408 8.0213 31.4794 8.13247 31.8902C8.24484 32.3071 8.57109 32.6333 8.98918 32.7445C9.31905 32.8327 9.62234 32.875 9.91718 32.875H34.0838C34.3787 32.875 34.682 32.8327 35.0118 32.7445C35.4299 32.6333 35.7562 32.3083 35.8685 31.8902C35.9797 31.4782 35.8649 31.0395 35.5689 30.735C35.7973 30.9562 36.1005 31.0758 36.4099 31.0758C36.515 31.0758 36.6201 31.0625 36.7241 31.0347C37.1409 30.9223 37.4672 30.5961 37.5783 30.178C37.6665 29.8481 37.7088 29.5448 37.7088 29.25V14.75C37.7088 14.4552 37.6665 14.1519 37.5783 13.822C37.4672 13.4039 37.1421 13.0777 36.7241 12.9653C36.6201 12.9375 36.515 12.9242 36.4099 12.9242C36.0993 12.9242 35.796 13.0438 35.5677 13.265C35.8637 12.9592 35.9785 12.5206 35.8673 12.1098C35.755 11.6929 35.4287 11.3667 35.0106 11.2555C34.682 11.1673 34.3787 11.125 34.0838 11.125Z" fill="black"/>
<path opacity="0.07" d="M34.0838 11.729H9.91713C9.67184 11.729 9.42655 11.764 9.1438 11.839C8.93476 11.8945 8.77163 12.0577 8.71605 12.2655C8.66047 12.4745 8.71968 12.6969 8.87193 12.8491L18.3259 22.3043C19.3059 23.2843 20.6109 23.8244 22.0005 23.8244C23.3901 23.8244 24.6951 23.2843 25.675 22.3055L35.129 12.8503C35.2813 12.6981 35.3417 12.4745 35.2849 12.2667C35.2293 12.0577 35.065 11.8958 34.8571 11.8402C34.5744 11.764 34.3291 11.729 34.0838 11.729ZM36.4111 13.527C36.2528 13.527 36.0981 13.5886 35.9833 13.7034L28.1158 21.5721C27.8802 21.8077 27.8802 22.1908 28.1158 22.4264L35.9833 30.2938C36.0981 30.4086 36.2528 30.4703 36.4111 30.4703C36.463 30.4703 36.5162 30.463 36.5681 30.4497C36.7772 30.3941 36.9391 30.2298 36.9947 30.022C37.0696 29.7404 37.1046 29.4951 37.1046 29.2498V14.7498C37.1046 14.5045 37.0696 14.2593 36.9947 13.9765C36.9391 13.7675 36.776 13.6043 36.5681 13.5488C36.5162 13.5343 36.463 13.527 36.4111 13.527ZM7.58989 13.527C7.53793 13.527 7.48476 13.5343 7.4328 13.5475C7.22376 13.6031 7.06184 13.7675 7.00626 13.9753C6.93134 14.2593 6.8963 14.5045 6.8963 14.7498V29.2498C6.8963 29.4951 6.93134 29.7404 7.00626 30.0232C7.06184 30.2322 7.22497 30.3953 7.4328 30.4509C7.48476 30.4654 7.53793 30.4715 7.58989 30.4715C7.74818 30.4715 7.90284 30.4098 8.01764 30.295L15.8851 22.4276C16.1207 22.192 16.1207 21.8089 15.8851 21.5733L8.01764 13.7046C7.90284 13.5898 7.74818 13.527 7.58989 13.527ZM26.8217 23.0922C26.6719 23.0922 26.5221 23.1478 26.4048 23.2589C25.2026 24.402 23.639 25.0315 22.0005 25.0315C20.362 25.0315 18.7972 24.402 17.5961 23.2589C17.4789 23.1478 17.3291 23.0922 17.1792 23.0922C17.0246 23.0922 16.8699 23.1514 16.7515 23.2686L8.87072 31.1493C8.71847 31.3016 8.65805 31.5251 8.71484 31.733C8.77163 31.9408 8.93476 32.1039 9.14259 32.1595C9.42655 32.2356 9.67184 32.2707 9.91713 32.2707H34.0838C34.3291 32.2707 34.5744 32.2356 34.8571 32.1607C35.0662 32.1051 35.2293 31.942 35.2849 31.7342C35.3405 31.5263 35.2813 31.3028 35.129 31.1505L27.2483 23.2698C27.1311 23.1514 26.9764 23.0922 26.8217 23.0922Z" fill="black"/>
<path d="M36.4111 14.1315L28.5424 22.0002L36.4099 29.8676C36.463 29.6695 36.5005 29.4652 36.5005 29.2502V14.7502C36.5005 14.5351 36.463 14.3309 36.4111 14.1315ZM25.2485 21.8781L34.7025 12.4229C34.5031 12.371 34.2989 12.3335 34.0838 12.3335H9.91716C9.70207 12.3335 9.49786 12.371 9.29849 12.4229L18.7525 21.8781C20.5444 23.6677 23.4565 23.6677 25.2485 21.8781ZM7.58991 14.1315C7.53795 14.3309 7.50049 14.5351 7.50049 14.7502V29.2502C7.50049 29.4652 7.53795 29.6695 7.58991 29.8688L15.4586 22.0002L7.58991 14.1315ZM22.0005 25.636C20.2605 25.636 18.5289 24.9811 17.1792 23.6967L9.29849 31.5774C9.49786 31.6294 9.70207 31.6668 9.91716 31.6668H34.0838C34.2989 31.6668 34.5031 31.6294 34.7025 31.5774L26.8217 23.6967C25.472 24.9811 23.7405 25.636 22.0005 25.636Z" fill="#F9F9F9"/>
</svg>
