<svg width="44" height="44" viewBox="0 0 44 44" fill="none" xmlns="http://www.w3.org/2000/svg">
<path d="M34.0833 43.75H9.91668C4.58672 43.75 0.250015 39.4133 0.250015 34.0833V9.91667C0.250015 4.58671 4.58672 0.25 9.91668 0.25H34.0833C39.4133 0.25 43.75 4.58671 43.75 9.91667V34.0833C43.75 39.4133 39.4133 43.75 34.0833 43.75Z" fill="#AED0F2"/>
<path opacity="0.05" d="M34.0834 12.3333C34.2984 12.3333 34.5026 12.3708 34.702 12.4227L25.248 21.878C24.3514 22.7733 23.1757 23.2204 22 23.2204C20.8243 23.2204 19.6486 22.7733 18.752 21.878L9.29802 12.4227C9.4974 12.3708 9.7016 12.3333 9.91669 12.3333H34.0834ZM36.4106 14.1313C36.4626 14.3307 36.5 14.5349 36.5 14.75V29.25C36.5 29.4651 36.4626 29.6693 36.4106 29.8687L28.5419 22L36.4106 14.1313ZM7.58944 14.1313L15.4581 22L7.59065 29.8675C7.53748 29.6693 7.50002 29.4651 7.50002 29.25V14.75C7.50002 14.5349 7.53748 14.3307 7.58944 14.1313ZM26.8213 23.6965L34.702 31.5773C34.5026 31.6292 34.2984 31.6667 34.0834 31.6667H9.91669C9.7016 31.6667 9.4974 31.6292 9.29802 31.5773L17.1788 23.6965C18.5285 24.981 20.26 25.6359 22 25.6359C23.74 25.6359 25.4716 24.981 26.8213 23.6965ZM34.0834 11.125H9.91669C9.62185 11.125 9.31856 11.1673 8.98869 11.2555C8.5706 11.3667 8.24435 11.6917 8.13198 12.1098C8.02081 12.5218 8.1356 12.9605 8.43165 13.265C8.20327 13.0438 7.89998 12.923 7.58944 12.923C7.48431 12.923 7.37919 12.9363 7.27527 12.9641C6.8584 13.0765 6.53215 13.4027 6.42098 13.8208C6.33398 14.1519 6.29169 14.4552 6.29169 14.75V29.25C6.29169 29.5448 6.33398 29.8481 6.42219 30.178C6.53335 30.5961 6.85839 30.9223 7.27648 31.0347C7.38039 31.0625 7.48552 31.0758 7.59065 31.0758C7.90119 31.0758 8.20448 30.9562 8.43165 30.735C8.1356 31.0408 8.02081 31.4794 8.13198 31.8902C8.24435 32.3071 8.5706 32.6333 8.98869 32.7445C9.31856 32.8327 9.62185 32.875 9.91669 32.875H34.0834C34.3782 32.875 34.6815 32.8327 35.0114 32.7445C35.4294 32.6333 35.7557 32.3083 35.8681 31.8902C35.9792 31.4782 35.8644 31.0395 35.5684 30.735C35.7968 30.9562 36.1001 31.0758 36.4094 31.0758C36.5145 31.0758 36.6196 31.0625 36.7236 31.0347C37.1404 30.9223 37.4667 30.5961 37.5778 30.178C37.6661 29.8481 37.7084 29.5448 37.7084 29.25V14.75C37.7084 14.4552 37.6661 14.1519 37.5778 13.822C37.4667 13.4039 37.1416 13.0777 36.7236 12.9653C36.6196 12.9375 36.5145 12.9242 36.4094 12.9242C36.0989 12.9242 35.7956 13.0438 35.5672 13.265C35.8632 12.9592 35.978 12.5206 35.8669 12.1098C35.7545 11.6929 35.4282 11.3667 35.0101 11.2555C34.6815 11.1673 34.3782 11.125 34.0834 11.125Z" fill="black"/>
<path opacity="0.07" d="M34.0833 11.729H9.91668C9.67139 11.729 9.42609 11.764 9.14334 11.839C8.9343 11.8945 8.77118 12.0577 8.71559 12.2655C8.66001 12.4745 8.71922 12.6969 8.87147 12.8491L18.3255 22.3043C19.3054 23.2843 20.6104 23.8244 22 23.8244C23.3896 23.8244 24.6946 23.2843 25.6746 22.3055L35.1286 12.8503C35.2808 12.6981 35.3412 12.4745 35.2844 12.2667C35.2288 12.0577 35.0645 11.8958 34.8567 11.8402C34.5739 11.764 34.3286 11.729 34.0833 11.729ZM36.4106 13.527C36.2523 13.527 36.0976 13.5886 35.9828 13.7034L28.1154 21.5721C27.8798 21.8077 27.8798 22.1908 28.1154 22.4264L35.9828 30.2938C36.0976 30.4086 36.2523 30.4703 36.4106 30.4703C36.4626 30.4703 36.5157 30.463 36.5677 30.4497C36.7767 30.3941 36.9386 30.2298 36.9942 30.022C37.0691 29.7404 37.1042 29.4951 37.1042 29.2498V14.7498C37.1042 14.5045 37.0691 14.2593 36.9942 13.9765C36.9386 13.7675 36.7755 13.6043 36.5677 13.5488C36.5157 13.5343 36.4626 13.527 36.4106 13.527ZM7.58943 13.527C7.53747 13.527 7.4843 13.5343 7.43234 13.5475C7.2233 13.6031 7.06138 13.7675 7.0058 13.9753C6.93088 14.2593 6.89584 14.5045 6.89584 14.7498V29.2498C6.89584 29.4951 6.93088 29.7404 7.0058 30.0232C7.06138 30.2322 7.22451 30.3953 7.43234 30.4509C7.4843 30.4654 7.53747 30.4715 7.58943 30.4715C7.74772 30.4715 7.90239 30.4098 8.01718 30.295L15.8846 22.4276C16.1203 22.192 16.1203 21.8089 15.8846 21.5733L8.01718 13.7046C7.90239 13.5898 7.74772 13.527 7.58943 13.527ZM26.8213 23.0922C26.6714 23.0922 26.5216 23.1478 26.4044 23.2589C25.2021 24.402 23.6385 25.0315 22 25.0315C20.3615 25.0315 18.7967 24.402 17.5956 23.2589C17.4784 23.1478 17.3286 23.0922 17.1788 23.0922C17.0241 23.0922 16.8694 23.1514 16.751 23.2686L8.87026 31.1493C8.71801 31.3016 8.65759 31.5251 8.71439 31.733C8.77118 31.9408 8.9343 32.1039 9.14214 32.1595C9.42609 32.2356 9.67139 32.2707 9.91668 32.2707H34.0833C34.3286 32.2707 34.5739 32.2356 34.8567 32.1607C35.0657 32.1051 35.2288 31.942 35.2844 31.7342C35.34 31.5263 35.2808 31.3028 35.1286 31.1505L27.2478 23.2698C27.1306 23.1514 26.9759 23.0922 26.8213 23.0922Z" fill="black"/>
<path d="M36.4106 14.1315L28.5419 22.0002L36.4094 29.8676C36.4626 29.6695 36.5 29.4652 36.5 29.2502V14.7502C36.5 14.5351 36.4626 14.3309 36.4106 14.1315ZM25.248 21.8781L34.702 12.4229C34.5026 12.371 34.2984 12.3335 34.0833 12.3335H9.91668C9.7016 12.3335 9.49739 12.371 9.29802 12.4229L18.752 21.8781C20.544 23.6677 23.4561 23.6677 25.248 21.8781ZM7.58943 14.1315C7.53747 14.3309 7.50002 14.5351 7.50002 14.7502V29.2502C7.50002 29.4652 7.53747 29.6695 7.58943 29.8688L15.4581 22.0002L7.58943 14.1315ZM22 25.636C20.26 25.636 18.5285 24.9811 17.1788 23.6967L9.29802 31.5774C9.49739 31.6294 9.7016 31.6668 9.91668 31.6668H34.0833C34.2984 31.6668 34.5026 31.6294 34.702 31.5774L26.8213 23.6967C25.4716 24.9811 23.74 25.636 22 25.636Z" fill="#F9F9F9"/>
</svg>
