<svg width="44" height="44" viewBox="0 0 44 44" fill="none" xmlns="http://www.w3.org/2000/svg">
<path d="M34.0833 43.75H9.91667C4.58671 43.75 0.25 39.4133 0.25 34.0833V9.91667C0.25 4.58671 4.58671 0.25 9.91667 0.25H34.0833C39.4133 0.25 43.75 4.58671 43.75 9.91667V34.0833C43.75 39.4133 39.4133 43.75 34.0833 43.75Z" fill="url(#paint0_linear_167_5)"/>
<path opacity="0.05" d="M34.0833 12.3333C34.2984 12.3333 34.5026 12.3708 34.702 12.4227L25.248 21.878C24.3514 22.7733 23.1757 23.2204 22 23.2204C20.8243 23.2204 19.6485 22.7733 18.752 21.878L9.29796 12.4227C9.49733 12.3708 9.70154 12.3333 9.91663 12.3333H34.0833ZM36.4105 14.1313C36.4625 14.3307 36.5 14.5349 36.5 14.75V29.25C36.5 29.4651 36.4625 29.6693 36.4105 29.8687L28.5419 22L36.4105 14.1313ZM7.58938 14.1313L15.458 22L7.59058 29.8675C7.53742 29.6693 7.49996 29.4651 7.49996 29.25V14.75C7.49996 14.5349 7.53742 14.3307 7.58938 14.1313ZM26.8212 23.6965L34.702 31.5773C34.5026 31.6292 34.2984 31.6667 34.0833 31.6667H9.91663C9.70154 31.6667 9.49733 31.6292 9.29796 31.5773L17.1787 23.6965C18.5284 24.981 20.26 25.6359 22 25.6359C23.74 25.6359 25.4715 24.981 26.8212 23.6965ZM34.0833 11.125H9.91663C9.62179 11.125 9.3185 11.1673 8.98863 11.2555C8.57054 11.3667 8.24429 11.6917 8.13192 12.1098C8.02075 12.5218 8.13554 12.9605 8.43158 13.265C8.20321 13.0438 7.89992 12.923 7.58938 12.923C7.48425 12.923 7.37913 12.9363 7.27521 12.9641C6.85833 13.0765 6.53208 13.4027 6.42092 13.8208C6.33392 14.1519 6.29163 14.4552 6.29163 14.75V29.25C6.29163 29.5448 6.33392 29.8481 6.42213 30.178C6.53329 30.5961 6.85833 30.9223 7.27642 31.0347C7.38033 31.0625 7.48546 31.0758 7.59058 31.0758C7.90113 31.0758 8.20442 30.9562 8.43158 30.735C8.13554 31.0408 8.02075 31.4794 8.13192 31.8902C8.24429 32.3071 8.57054 32.6333 8.98863 32.7445C9.3185 32.8327 9.62179 32.875 9.91663 32.875H34.0833C34.3781 32.875 34.6814 32.8327 35.0113 32.7445C35.4294 32.6333 35.7556 32.3083 35.868 31.8902C35.9792 31.4782 35.8644 31.0395 35.5683 30.735C35.7967 30.9562 36.1 31.0758 36.4093 31.0758C36.5145 31.0758 36.6196 31.0625 36.7235 31.0347C37.1404 30.9223 37.4666 30.5961 37.5778 30.178C37.666 29.8481 37.7083 29.5448 37.7083 29.25V14.75C37.7083 14.4552 37.666 14.1519 37.5778 13.822C37.4666 13.4039 37.1416 13.0777 36.7235 12.9653C36.6196 12.9375 36.5145 12.9242 36.4093 12.9242C36.0988 12.9242 35.7955 13.0438 35.5671 13.265C35.8632 12.9592 35.978 12.5206 35.8668 12.1098C35.7544 11.6929 35.4282 11.3667 35.0101 11.2555C34.6814 11.1673 34.3781 11.125 34.0833 11.125Z" fill="black"/>
<path opacity="0.07" d="M34.0834 11.729H9.91671C9.67142 11.729 9.42612 11.764 9.14337 11.839C8.93433 11.8945 8.77121 12.0577 8.71562 12.2655C8.66004 12.4745 8.71925 12.6969 8.8715 12.8491L18.3255 22.3043C19.3055 23.2843 20.6105 23.8244 22 23.8244C23.3896 23.8244 24.6946 23.2843 25.6746 22.3055L35.1286 12.8503C35.2808 12.6981 35.3412 12.4745 35.2845 12.2667C35.2289 12.0577 35.0645 11.8958 34.8567 11.8402C34.574 11.764 34.3287 11.729 34.0834 11.729ZM36.4106 13.527C36.2523 13.527 36.0977 13.5886 35.9829 13.7034L28.1154 21.5721C27.8798 21.8077 27.8798 22.1908 28.1154 22.4264L35.9829 30.2938C36.0977 30.4086 36.2523 30.4703 36.4106 30.4703C36.4626 30.4703 36.5157 30.463 36.5677 30.4497C36.7768 30.3941 36.9387 30.2298 36.9943 30.022C37.0692 29.7404 37.1042 29.4951 37.1042 29.2498V14.7498C37.1042 14.5045 37.0692 14.2593 36.9943 13.9765C36.9387 13.7675 36.7755 13.6043 36.5677 13.5488C36.5157 13.5343 36.4626 13.527 36.4106 13.527ZM7.58946 13.527C7.5375 13.527 7.48433 13.5343 7.43237 13.5475C7.22333 13.6031 7.06142 13.7675 7.00583 13.9753C6.93092 14.2593 6.89587 14.5045 6.89587 14.7498V29.2498C6.89587 29.4951 6.93092 29.7404 7.00583 30.0232C7.06142 30.2322 7.22454 30.3953 7.43237 30.4509C7.48433 30.4654 7.5375 30.4715 7.58946 30.4715C7.74775 30.4715 7.90242 30.4098 8.01721 30.295L15.8847 22.4276C16.1203 22.192 16.1203 21.8089 15.8847 21.5733L8.01721 13.7046C7.90242 13.5898 7.74775 13.527 7.58946 13.527ZM26.8213 23.0922C26.6715 23.0922 26.5216 23.1478 26.4044 23.2589C25.2021 24.402 23.6385 25.0315 22 25.0315C20.3615 25.0315 18.7967 24.402 17.5957 23.2589C17.4785 23.1478 17.3286 23.0922 17.1788 23.0922C17.0241 23.0922 16.8695 23.1514 16.751 23.2686L8.87029 31.1493C8.71804 31.3016 8.65762 31.5251 8.71442 31.733C8.77121 31.9408 8.93433 32.1039 9.14217 32.1595C9.42612 32.2356 9.67142 32.2707 9.91671 32.2707H34.0834C34.3287 32.2707 34.574 32.2356 34.8567 32.1607C35.0658 32.1051 35.2289 31.942 35.2845 31.7342C35.34 31.5263 35.2808 31.3028 35.1286 31.1505L27.2478 23.2698C27.1306 23.1514 26.976 23.0922 26.8213 23.0922Z" fill="black"/>
<path d="M36.4106 14.1315L28.5419 22.0002L36.4094 29.8676C36.4625 29.6695 36.5 29.4652 36.5 29.2502V14.7502C36.5 14.5351 36.4625 14.3309 36.4106 14.1315ZM25.248 21.8781L34.702 12.4229C34.5026 12.371 34.2984 12.3335 34.0833 12.3335H9.91667C9.70158 12.3335 9.49738 12.371 9.298 12.4229L18.752 21.8781C20.544 23.6677 23.456 23.6677 25.248 21.8781ZM7.58942 14.1315C7.53746 14.3309 7.5 14.5351 7.5 14.7502V29.2502C7.5 29.4652 7.53746 29.6695 7.58942 29.8688L15.4581 22.0002L7.58942 14.1315ZM22 25.636C20.26 25.636 18.5285 24.9811 17.1788 23.6967L9.298 31.5774C9.49738 31.6294 9.70158 31.6668 9.91667 31.6668H34.0833C34.2984 31.6668 34.5026 31.6294 34.702 31.5774L26.8213 23.6967C25.4715 24.9811 23.74 25.636 22 25.636Z" fill="#F9F9F9"/>
<defs>
<linearGradient id="paint0_linear_167_5" x1="22" y1="43.75" x2="22" y2="0.500123" gradientUnits="userSpaceOnUse">
<stop stop-color="#1AC8FC"/>
<stop offset="0.258" stop-color="#1BB6FA"/>
<stop offset="0.775" stop-color="#1C86F5"/>
<stop offset="1" stop-color="#1D70F2"/>
</linearGradient>
</defs>
</svg>
