<svg width="40" height="42" viewBox="0 0 40 42" fill="none" xmlns="http://www.w3.org/2000/svg">
<path d="M20 1C17.361 1 9.33002 1 4.89002 5.054C2.24602 7.688 1.00002 11.494 1.00002 17V20C1.00002 25.506 2.24601 29.312 4.92101 31.976C6.25301 33.191 8.06901 34.162 10.289 34.833L11 35.047V40.375C11 41 11.181 41 11.241 41C11.364 41 11.561 40.961 11.935 40.629C12.025 40.54 12.685 39.826 15.895 36.23L16.219 35.867L16.704 35.898C17.779 35.965 18.888 36 20 36C22.639 36 30.67 36 35.11 31.945C37.753 29.311 39 25.505 39 20V17C39 11.494 37.754 7.688 35.079 5.024C30.67 1 22.639 1 20 1Z" fill="white"/>
<path d="M29.451 24.854C28.34 23.918 27.827 23.635 26.293 22.714C25.654 22.331 24.68 22 24.169 22C23.82 22 23.402 22.267 23.146 22.523C22.49 23.179 22.275 24 21.125 24C20 24 18.035 22.855 16.625 21.375C15.145 19.965 14 18 14 16.875C14 15.725 14.806 15.495 15.462 14.838C15.718 14.583 16 14.165 16 13.816C16 13.305 15.669 12.346 15.286 11.707C14.365 10.172 14.083 9.659 13.146 8.549C12.829 8.173 12.468 8.001 12.09 8C11.451 7.999 10.612 8.316 10.044 8.739C9.19001 9.376 8.29701 10.243 8.05801 11.323C8.02601 11.47 8.00701 11.618 8.00101 11.766C7.95501 12.891 8.39701 14.033 8.87401 15C9.99701 17.279 11.483 19.485 13.1 21.455C13.617 22.085 14.18 22.671 14.763 23.237C15.329 23.819 15.915 24.382 16.545 24.9C18.515 26.517 20.721 28.003 23 29.126C23.958 29.598 25.086 30.032 26.2 30C26.359 29.995 26.518 29.977 26.677 29.942C27.757 29.704 28.624 28.81 29.261 27.956C29.684 27.388 30.001 26.55 30 25.91C29.999 25.532 29.827 25.171 29.451 24.854ZM30 20C29.448 20 29 19.552 29 19V18C29 13.038 24.962 9 20 9C19.448 9 19 8.552 19 8C19 7.448 19.448 7 20 7C26.065 7 31 11.935 31 18V19C31 19.552 30.552 20 30 20ZM23.858 18C23.414 18 23.008 17.702 22.891 17.252C22.617 16.201 21.797 15.38 20.75 15.11C20.215 14.971 19.894 14.426 20.032 13.891C20.17 13.357 20.714 13.036 21.251 13.173C22.999 13.626 24.369 14.995 24.826 16.747C24.965 17.282 24.645 17.827 24.111 17.967C24.026 17.989 23.941 18 23.858 18Z" fill="#AED0F2"/>
<path d="M27 19.0001C26.448 19.0001 26 18.5521 26 18.0001C26 14.8121 23.506 12.1821 20.322 12.0141C19.77 11.9851 19.347 11.5141 19.376 10.9631C19.405 10.4111 19.884 9.98712 20.427 10.0171C24.674 10.2411 28 13.7481 28 18.0001C28 18.5521 27.552 19.0001 27 19.0001Z" fill="#AED0F2"/>
<path d="M20 0C15.5 0 8.48801 0.414 4.21601 4.316C1.19601 7.323 1.17913e-05 11.541 1.17913e-05 17C1.17913e-05 17.452 -0.00198835 17.956 0.00201165 18.5C-0.00198835 19.043 1.17913e-05 19.547 1.17913e-05 19.999C1.17913e-05 25.458 1.19601 29.676 4.21601 32.683C5.84201 34.168 7.87001 35.145 10 35.789V40.375C10 41.971 11.049 42 11.241 42H11.25C11.744 41.998 12.171 41.756 12.599 41.376C12.76 41.233 14.619 39.161 16.641 36.895C17.845 36.972 18.989 37 19.999 37C24.499 37 31.51 36.585 35.783 32.683C38.802 29.677 39.999 25.458 39.999 19.999C39.999 19.547 40.001 19.043 39.997 18.499C40.001 17.955 39.999 17.452 39.999 16.999C39.999 11.54 38.803 7.322 35.783 4.315C31.511 0.414 24.5 0 20 0ZM37 19.651V19.999C37 24.905 35.955 28.248 33.714 30.511C29.832 34 22.437 34 19.999 34C19.257 34 18.053 33.999 16.632 33.9C16.237 34.344 12 39.083 12 39.083V33.22C9.89601 32.715 7.81701 31.887 6.28601 30.512C4.04501 28.248 3.00001 24.905 3.00001 19.999V19.651C3.00001 19.3 2.99901 18.921 3.00201 18.478C2.99901 18.078 2.99901 17.7 3.00001 17.348V17C3.00001 12.094 4.04501 8.751 6.28601 6.488C10.167 2.999 17.563 2.999 20 2.999C22.437 2.999 29.832 2.999 33.713 6.488C35.955 8.751 36.999 12.094 36.999 17V17.348C36.999 17.699 37 18.078 36.997 18.521C37 18.922 37 19.3 37 19.651Z" fill="#AED0F2"/>
</svg>
