<svg width="43" height="43" viewBox="0 0 43 43" fill="none" xmlns="http://www.w3.org/2000/svg">
<path d="M8.64778 18.6094C12.0878 25.37 17.63 30.9122 24.3906 34.3522L29.6461 29.0967C30.315 28.4278 31.2467 28.2367 32.0828 28.4994C34.7583 29.3833 37.625 29.8611 40.6111 29.8611C41.2447 29.8611 41.8523 30.1128 42.3003 30.5608C42.7483 31.0088 43 31.6164 43 32.25V40.6111C43 41.2447 42.7483 41.8523 42.3003 42.3003C41.8523 42.7483 41.2447 43 40.6111 43C29.8404 43 19.5108 38.7213 11.8947 31.1053C4.27866 23.4892 0 13.1596 0 2.38889C0 1.75532 0.251686 1.14769 0.699689 0.699689C1.14769 0.251686 1.75532 0 2.38889 0H10.75C11.3836 0 11.9912 0.251686 12.4392 0.699689C12.8872 1.14769 13.1389 1.75532 13.1389 2.38889C13.1389 5.375 13.6167 8.24167 14.5006 10.9172C14.7633 11.7533 14.5722 12.685 13.9033 13.3539L8.64778 18.6094Z" fill="white"/>
</svg>
