<svg width="25" height="24" viewBox="0 0 25 24" fill="none" xmlns="http://www.w3.org/2000/svg">
<path d="M21.9611 23.0667L14.2688 15.6C13.582 16.1333 12.7922 16.5556 11.8994 16.8667C11.0065 17.1778 10.0564 17.3333 9.0491 17.3333C6.5537 17.3333 4.442 16.4942 2.71399 14.816C0.985983 13.1378 0.121521 11.088 0.120605 8.66667C0.120605 6.24444 0.985067 4.19467 2.71399 2.51733C4.44291 0.84 6.55462 0.000888889 9.0491 0C11.5445 0 13.6562 0.839111 15.3842 2.51733C17.1122 4.19556 17.9767 6.24533 17.9776 8.66667C17.9776 9.64444 17.8173 10.5667 17.4968 11.4333C17.1763 12.3 16.7414 13.0667 16.1919 13.7333L23.9185 21.2333C24.1703 21.4778 24.2962 21.7778 24.2962 22.1333C24.2962 22.4889 24.1589 22.8 23.8841 23.0667C23.6323 23.3111 23.3118 23.4333 22.9226 23.4333C22.5334 23.4333 22.2129 23.3111 21.9611 23.0667ZM9.0491 14.6667C10.7661 14.6667 12.2258 14.0831 13.4282 12.916C14.6306 11.7489 15.2313 10.3324 15.2304 8.66667C15.2304 7 14.6292 5.58311 13.4268 4.416C12.2244 3.24889 10.7652 2.66578 9.0491 2.66667C7.33209 2.66667 5.87239 3.25022 4.67002 4.41733C3.46765 5.58444 2.86692 7.00089 2.86784 8.66667C2.86784 10.3333 3.46902 11.7502 4.67139 12.9173C5.87376 14.0844 7.333 14.6676 9.0491 14.6667Z" fill="white"/>
</svg>
