<svg width="23" height="27" viewBox="0 0 23 27" fill="none" xmlns="http://www.w3.org/2000/svg">
<path d="M4.62556 11.4802C6.46556 15.6507 9.43 19.0697 13.0461 21.1919L15.8572 17.9497C16.215 17.5371 16.7133 17.4192 17.1606 17.5813C18.5917 18.1266 20.125 18.4213 21.7222 18.4213C22.0611 18.4213 22.3861 18.5766 22.6257 18.8529C22.8654 19.1293 23 19.5042 23 19.895V25.053C23 25.4438 22.8654 25.8187 22.6257 26.095C22.3861 26.3714 22.0611 26.5267 21.7222 26.5267C15.9611 26.5267 10.436 23.8872 6.36229 19.1888C2.28858 14.4905 0 8.11816 0 1.4737C0 1.08285 0.134623 0.708011 0.374252 0.431638C0.613882 0.155265 0.93889 0 1.27778 0H5.75C6.08889 0 6.4139 0.155265 6.65353 0.431638C6.89316 0.708011 7.02778 1.08285 7.02778 1.4737C7.02778 3.31583 7.28333 5.08428 7.75611 6.73483C7.89667 7.25062 7.79444 7.82537 7.43667 8.238L4.62556 11.4802Z" fill="white"/>
</svg>
